<svg width="16" height="16" viewBox="0 0 16 16" fill="none" xmlns="http://www.w3.org/2000/svg">
<mask id="mask0" mask-type="alpha" maskUnits="userSpaceOnUse" x="2" y="3" width="12" height="10">
<path d="M5.86337 10.5833L3.55004 8.26999C3.42548 8.14516 3.25638 8.075 3.08004 8.075C2.90369 8.075 2.73459 8.14516 2.61004 8.26999C2.35004 8.52999 2.35004 8.94999 2.61004 9.20999L5.39671 11.9967C5.65671 12.2567 6.07671 12.2567 6.33671 11.9967L13.39 4.94332C13.65 4.68332 13.65 4.26332 13.39 4.00332C13.2655 3.87849 13.0964 3.80833 12.92 3.80833C12.7437 3.80833 12.5746 3.87849 12.45 4.00332L5.86337 10.5833Z" fill="black"/>
</mask>
<g mask="url(#mask0)">
<rect width="16" height="16" fill="white"/>
</g>
</svg>
