<svg width="16" height="16" viewBox="0 0 16 16" fill="none" xmlns="http://www.w3.org/2000/svg">
<path fill-rule="evenodd" clip-rule="evenodd" d="M8.00004 1.33337C11.6819 1.33337 14.6667 4.31814 14.6667 8.00004C14.6667 11.6819 11.6819 14.6667 8.00004 14.6667C4.31814 14.6667 1.33337 11.6819 1.33337 8.00004C1.33337 4.31814 4.31814 1.33337 8.00004 1.33337ZM8.00004 2.66671C5.05452 2.66671 2.66671 5.05452 2.66671 8.00004C2.66671 10.9456 5.05452 13.3334 8.00004 13.3334C10.9456 13.3334 13.3334 10.9456 13.3334 8.00004C13.3334 5.05452 10.9456 2.66671 8.00004 2.66671ZM8.00004 6.66671C8.36823 6.66671 8.66671 6.96518 8.66671 7.33337V11.3334C8.66671 11.7016 8.36823 12 8.00004 12C7.63185 12 7.33337 11.7016 7.33337 11.3334V7.33337C7.33337 6.96518 7.63185 6.66671 8.00004 6.66671ZM8.00004 4.00004C8.36823 4.00004 8.66671 4.29852 8.66671 4.66671C8.66671 5.0349 8.36823 5.33337 8.00004 5.33337C7.63185 5.33337 7.33337 5.0349 7.33337 4.66671C7.33337 4.29852 7.63185 4.00004 8.00004 4.00004Z" fill="#20284A"/>
</svg>
