<svg width="16" height="16" viewBox="0 0 16 16" fill="none" xmlns="http://www.w3.org/2000/svg">
<path fill-rule="evenodd" clip-rule="evenodd" d="M8.00001 1.33333C11.6819 1.33333 14.6667 4.3181 14.6667 8C14.6667 11.6819 11.6819 14.6667 8.00001 14.6667C4.31811 14.6667 1.33334 11.6819 1.33334 8C1.33334 4.3181 4.31811 1.33333 8.00001 1.33333ZM8.00001 2.66666C5.05449 2.66666 2.66668 5.05448 2.66668 7.99999C2.66668 10.9455 5.05449 13.3333 8.00001 13.3333C10.9455 13.3333 13.3333 10.9455 13.3333 7.99999C13.3333 5.05448 10.9455 2.66666 8.00001 2.66666ZM8.00001 6.66666C8.3682 6.66666 8.66668 6.96514 8.66668 7.33333V11.3333C8.66668 11.7015 8.3682 12 8.00001 12C7.63182 12 7.33334 11.7015 7.33334 11.3333V7.33333C7.33334 6.96514 7.63182 6.66666 8.00001 6.66666ZM8.00001 3.99999C8.3682 3.99999 8.66668 4.29847 8.66668 4.66666C8.66668 5.03485 8.3682 5.33333 8.00001 5.33333C7.63182 5.33333 7.33334 5.03485 7.33334 4.66666C7.33334 4.29847 7.63182 3.99999 8.00001 3.99999Z" fill="#898EA3"/>
</svg>
